<svg width="24" height="22" viewBox="0 0 24 22" fill="none" xmlns="http://www.w3.org/2000/svg">
<path d="M11.2693 19.3078L11.2671 19.3058C8.1476 16.4796 5.67936 14.2364 3.97347 12.1513C2.28403 10.0862 1.5 8.36037 1.5 6.59401C1.5 3.72087 3.72935 1.5 6.6 1.5C8.23505 1.5 9.8288 2.26823 10.8622 3.47117L12 4.79567L13.1378 3.47117C14.1712 2.26823 15.7649 1.5 17.4 1.5C20.2706 1.5 22.5 3.72087 22.5 6.59401C22.5 8.36037 21.716 10.0862 20.0265 12.1513C18.3206 14.2364 15.8524 16.4796 12.7329 19.3058L12.7307 19.3078L12 19.9724L11.2693 19.3078Z" stroke="#02122C" stroke-width="3"/>
</svg>
