<svg width="28" height="26" viewBox="0 0 28 26" fill="none" xmlns="http://www.w3.org/2000/svg">
<path d="M12.9864 23.0265L12.9842 23.0246C9.35002 19.6893 6.4536 17.0237 4.4482 14.5406C2.45982 12.0787 1.5 9.97647 1.5 7.79292C1.5 4.22792 4.23156 1.5 7.7 1.5C9.67582 1.5 11.6021 2.43874 12.856 3.91731L14 5.26633L15.144 3.91731C16.3979 2.43874 18.3242 1.5 20.3 1.5C23.7684 1.5 26.5 4.22792 26.5 7.79292C26.5 9.97647 25.5402 12.0787 23.5518 14.5406C21.5464 17.0237 18.65 19.6893 15.0158 23.0246L15.0136 23.0265L14 23.9604L12.9864 23.0265Z" fill="#02122C" stroke="#02122C" stroke-width="3"/>
</svg>
