<svg width="25" height="24" viewBox="0 0 25 24" fill="none" xmlns="http://www.w3.org/2000/svg">
<path d="M12.0242 12C12.5747 12 13.0462 11.804 13.4386 11.412C13.8303 11.0207 14.0261 10.55 14.0261 10C14.0261 9.45 13.8303 8.979 13.4386 8.587C13.0462 8.19567 12.5747 8 12.0242 8C11.4737 8 11.0026 8.19567 10.6108 8.587C10.2185 8.979 10.0223 9.45 10.0223 10C10.0223 10.55 10.2185 11.0207 10.6108 11.412C11.0026 11.804 11.4737 12 12.0242 12ZM12.0242 22C9.33828 19.7167 7.33235 17.5957 6.0064 15.637C4.67979 13.679 4.01648 11.8667 4.01648 10.2C4.01648 7.7 4.82159 5.70833 6.43181 4.225C8.04136 2.74167 9.9055 2 12.0242 2C14.1429 2 16.0071 2.74167 17.6166 4.225C19.2268 5.70833 20.0319 7.7 20.0319 10.2C20.0319 11.8667 19.369 13.679 18.043 15.637C16.7164 17.5957 14.7101 19.7167 12.0242 22Z" fill="#96BAFF" fill-opacity="0.6"/>
</svg>
