<svg width="24" height="18" viewBox="0 0 24 18" fill="none" xmlns="http://www.w3.org/2000/svg">
<path d="M16.875 16.25C16.875 16.5484 16.7565 16.8345 16.5455 17.0455C16.3346 17.2565 16.0484 17.375 15.75 17.375H2.25004C1.95167 17.375 1.66552 17.2565 1.45454 17.0455C1.24356 16.8345 1.12504 16.5484 1.12504 16.25C1.12504 15.9516 1.24356 15.6655 1.45454 15.4545C1.66552 15.2435 1.95167 15.125 2.25004 15.125H15.75C16.0484 15.125 16.3346 15.2435 16.5455 15.4545C16.7565 15.6655 16.875 15.9516 16.875 16.25ZM23.9813 4.82188C23.9535 4.98358 23.8903 5.13716 23.7963 5.27166C23.7023 5.40616 23.5798 5.51827 23.4375 5.6L9.24379 13.85C8.61165 14.2174 7.89371 14.4115 7.16254 14.4125C6.11703 14.4131 5.11084 14.014 4.35004 13.2969L0.815661 9.97813C0.588829 9.76591 0.418576 9.50041 0.320347 9.20573C0.222119 8.91105 0.199025 8.5965 0.253161 8.29063C0.30737 7.98321 0.436732 7.69396 0.629736 7.44861C0.82274 7.20327 1.0734 7.00944 1.35941 6.88438L2.93441 6.21875C3.07346 6.15837 3.22344 6.12721 3.37504 6.12721C3.52663 6.12721 3.67661 6.15837 3.81566 6.21875L5.92504 7.11875L6.71254 6.66875L4.99691 5.12188C4.76185 4.91143 4.5837 4.64508 4.47894 4.34748C4.37419 4.04988 4.34622 3.73066 4.39763 3.41938C4.44904 3.1081 4.57817 2.81482 4.77306 2.56671C4.96795 2.3186 5.22229 2.12368 5.51254 2L7.05941 1.34375C7.31134 1.23346 7.59512 1.22011 7.85629 1.30625L12.9938 3.02188L16.7157 0.837501C17.5613 0.333583 18.5601 0.150997 19.5293 0.323151C20.4986 0.495305 21.3734 1.01069 21.9938 1.775L23.7469 3.9125C23.8486 4.03856 23.9222 4.18494 23.9626 4.3418C24.003 4.49865 24.0094 4.66235 23.9813 4.82188ZM21.1688 4.31563L20.2594 3.2C19.9777 2.85214 19.5802 2.61718 19.1396 2.53801C18.699 2.45884 18.2446 2.54074 17.8594 2.76875L13.6969 5.21563C13.5588 5.29885 13.4044 5.35117 13.2442 5.36897C13.0839 5.38677 12.9218 5.36964 12.7688 5.31875L7.54691 3.575L6.93754 3.8375L9.37504 6.04063C9.50691 6.15923 9.60886 6.30734 9.67259 6.47285C9.73631 6.63837 9.76 6.81661 9.74172 6.99303C9.72344 7.16944 9.66371 7.33904 9.5674 7.48797C9.47108 7.6369 9.34092 7.76095 9.18754 7.85L6.56254 9.35C6.41138 9.43717 6.24188 9.48767 6.06766 9.49744C5.89345 9.50721 5.71937 9.47598 5.55941 9.40625L3.37504 8.47813L2.77504 8.73125L5.88754 11.6563C6.18381 11.9309 6.56016 12.1037 6.9616 12.1492C7.36303 12.1947 7.76851 12.1107 8.11879 11.9094L21.1688 4.31563Z" fill="#96BAFF" fill-opacity="0.9"/>
</svg>
