<svg width="30" height="30" viewBox="0 0 30 30" fill="none" xmlns="http://www.w3.org/2000/svg">
<path d="M16.5 15.2625L19.875 18.6375C20.15 18.9125 20.2875 19.2565 20.2875 19.6695C20.2875 20.0815 20.15 20.4375 19.875 20.7375C19.575 21.0375 19.219 21.1875 18.807 21.1875C18.394 21.1875 18.0375 21.0375 17.7375 20.7375L14.55 17.55C14.2 17.2 13.9375 16.8125 13.7625 16.3875C13.5875 15.9625 13.5 15.5 13.5 15V10.5C13.5 10.075 13.644 9.7185 13.932 9.4305C14.219 9.1435 14.575 9 15 9C15.425 9 15.7815 9.1435 16.0695 9.4305C16.3565 9.7185 16.5 10.075 16.5 10.5V15.2625ZM15 3C15.425 3 15.7815 3.1435 16.0695 3.4305C16.3565 3.7185 16.5 4.075 16.5 4.5C16.5 4.925 16.3565 5.2815 16.0695 5.5695C15.7815 5.8565 15.425 6 15 6C14.575 6 14.219 5.8565 13.932 5.5695C13.644 5.2815 13.5 4.925 13.5 4.5C13.5 4.075 13.644 3.7185 13.932 3.4305C14.219 3.1435 14.575 3 15 3ZM27 15C27 15.425 26.856 15.781 26.568 16.068C26.281 16.356 25.925 16.5 25.5 16.5C25.075 16.5 24.719 16.356 24.432 16.068C24.144 15.781 24 15.425 24 15C24 14.575 24.144 14.2185 24.432 13.9305C24.719 13.6435 25.075 13.5 25.5 13.5C25.925 13.5 26.281 13.6435 26.568 13.9305C26.856 14.2185 27 14.575 27 15ZM15 24C15.425 24 15.7815 24.144 16.0695 24.432C16.3565 24.719 16.5 25.075 16.5 25.5C16.5 25.925 16.3565 26.281 16.0695 26.568C15.7815 26.856 15.425 27 15 27C14.575 27 14.219 26.856 13.932 26.568C13.644 26.281 13.5 25.925 13.5 25.5C13.5 25.075 13.644 24.719 13.932 24.432C14.219 24.144 14.575 24 15 24ZM6 15C6 15.425 5.8565 15.781 5.5695 16.068C5.2815 16.356 4.925 16.5 4.5 16.5C4.075 16.5 3.7185 16.356 3.4305 16.068C3.1435 15.781 3 15.425 3 15C3 14.575 3.1435 14.2185 3.4305 13.9305C3.7185 13.6435 4.075 13.5 4.5 13.5C4.925 13.5 5.2815 13.6435 5.5695 13.9305C5.8565 14.2185 6 14.575 6 15ZM15 30C12.925 30 10.975 29.606 9.15 28.818C7.325 28.031 5.7375 26.9625 4.3875 25.6125C3.0375 24.2625 1.969 22.675 1.182 20.85C0.394 19.025 0 17.075 0 15C0 12.925 0.394 10.975 1.182 9.15C1.969 7.325 3.0375 5.7375 4.3875 4.3875C5.7375 3.0375 7.325 1.9685 9.15 1.1805C10.975 0.3935 12.925 0 15 0C17.075 0 19.025 0.3935 20.85 1.1805C22.675 1.9685 24.2625 3.0375 25.6125 4.3875C26.9625 5.7375 28.031 7.325 28.818 9.15C29.606 10.975 30 12.925 30 15C30 17.075 29.606 19.025 28.818 20.85C28.031 22.675 26.9625 24.2625 25.6125 25.6125C24.2625 26.9625 22.675 28.031 20.85 28.818C19.025 29.606 17.075 30 15 30ZM15 27C18.35 27 21.1875 25.8375 23.5125 23.5125C25.8375 21.1875 27 18.35 27 15C27 11.65 25.8375 8.8125 23.5125 6.4875C21.1875 4.1625 18.35 3 15 3C11.65 3 8.8125 4.1625 6.4875 6.4875C4.1625 8.8125 3 11.65 3 15C3 18.35 4.1625 21.1875 6.4875 23.5125C8.8125 25.8375 11.65 27 15 27Z" fill="#9098F5"/>
</svg>
