<svg width="207" height="77" viewBox="0 0 207 77" fill="none" xmlns="http://www.w3.org/2000/svg">
<path d="M78.688 16.352V43.616C78.688 46.048 79.0293 48.0533 79.712 49.632C80.4373 51.168 81.376 52.384 82.528 53.28C83.68 54.176 84.9813 54.7947 86.432 55.136C87.9253 55.4773 89.44 55.648 90.976 55.648C92.512 55.648 94.0053 55.4773 95.456 55.136C96.9067 54.7947 98.208 54.176 99.36 53.28C100.512 52.384 101.429 51.168 102.112 49.632C102.795 48.0533 103.136 46.048 103.136 43.616V16.352H108.512V44.96C108.512 47.1787 108.085 49.248 107.232 51.168C106.421 53.088 105.248 54.7733 103.712 56.224C102.176 57.632 100.32 58.7413 98.144 59.552C95.968 60.3627 93.5573 60.768 90.912 60.768C85.2373 60.768 80.8853 59.4027 77.856 56.672C74.8267 53.8987 73.312 49.9947 73.312 44.96V16.352H78.688Z" fill="#02122C"/>
<path d="M152.661 22.496C150.783 22.112 148.778 21.7493 146.645 21.408C144.554 21.0667 142.122 20.8533 139.349 20.768C136.533 20.8107 134.101 21.2373 132.053 22.048C130.005 22.8587 128.319 24.032 126.997 25.568C125.717 27.0613 124.757 28.8533 124.117 30.944C123.477 33.0347 123.157 35.3387 123.157 37.856C123.157 41.0987 123.562 43.872 124.373 46.176C125.226 48.48 126.378 50.3787 127.829 51.872C129.322 53.3227 131.05 54.3893 133.013 55.072C134.975 55.7547 137.087 56.096 139.349 56.096C140.799 56.096 142.101 56.0107 143.253 55.84C144.447 55.6693 145.471 55.4773 146.325 55.264C147.221 55.008 148.031 54.7307 148.757 54.432V42.72H140.757V37.92H154.197V57.056C152.703 58.0373 150.634 58.9333 147.989 59.744C145.386 60.512 142.506 60.8747 139.349 60.832C136.447 60.832 133.653 60.4907 130.965 59.808C128.319 59.1253 125.951 57.9307 123.861 56.224C121.813 54.4747 120.17 52.1067 118.933 49.12C117.695 46.1333 117.077 42.3573 117.077 37.792C117.077 34.08 117.653 30.8587 118.805 28.128C119.957 25.3547 121.514 23.072 123.477 21.28C125.482 19.4453 127.786 18.08 130.389 17.184C133.034 16.2453 135.829 15.776 138.773 15.776C140.693 15.776 142.549 15.8827 144.341 16.096C146.133 16.2667 147.775 16.48 149.269 16.736C150.762 16.9493 152.191 17.2267 153.557 17.568L152.661 22.496ZM161.389 38.176C161.389 34.0373 162.029 30.5387 163.309 27.68C164.632 24.8213 166.296 22.5173 168.301 20.768C170.349 19.0187 172.61 17.76 175.085 16.992C177.602 16.1813 180.056 15.776 182.445 15.776C184.834 15.776 187.266 16.1173 189.741 16.8C192.258 17.44 194.52 18.6133 196.525 20.32C198.573 21.984 200.237 24.2667 201.517 27.168C202.84 30.0693 203.501 33.76 203.501 38.24C203.501 42.4213 202.84 45.9413 201.517 48.8C200.237 51.6587 198.573 53.984 196.525 55.776C194.52 57.568 192.258 58.8693 189.741 59.68C187.266 60.448 184.834 60.832 182.445 60.832C180.056 60.832 177.602 60.448 175.085 59.68C172.61 58.912 170.349 57.6533 168.301 55.904C166.296 54.1547 164.632 51.8293 163.309 48.928C162.029 46.0267 161.389 42.4427 161.389 38.176ZM197.421 38.496C197.421 32.736 196.077 28.3627 193.389 25.376C190.744 22.3893 187.181 20.896 182.701 20.896C180.44 20.896 178.37 21.2587 176.493 21.984C174.658 22.6667 173.058 23.712 171.693 25.12C170.37 26.528 169.325 28.2987 168.557 30.432C167.832 32.5227 167.469 34.9973 167.469 37.856C167.469 43.616 168.792 48.032 171.437 51.104C174.125 54.176 177.709 55.712 182.189 55.712C184.408 55.712 186.456 55.3707 188.333 54.688C190.21 53.9627 191.81 52.8747 193.133 51.424C194.498 49.9733 195.544 48.1813 196.269 46.048C197.037 43.9147 197.421 41.3973 197.421 38.496Z" fill="#9098F5" fill-opacity="0.9"/>
<path d="M32.0018 71C49.661 71 64 56.6577 64 38.9997C64 21.3422 49.6608 7 32.0022 7C14.3435 7 -9.53674e-07 21.3422 -9.53674e-07 38.9997C-9.53674e-07 56.6577 14.3434 71 32.0018 71ZM16.4265 64.0103C8.08827 58.8114 2.54397 49.561 2.54397 38.9997C2.54397 36.666 2.8153 34.3953 3.32679 32.2189L6.67101 33.2739L4.99455 27.2072C6.28165 24.2603 8.03899 21.5669 10.168 19.2179L16.0437 23.4294L24.8419 16.933L33.236 15.9846L35.1292 21.6723L41.8982 18.0179L51.1686 20.596L49.922 15.6143C53.7898 18.5811 56.8966 22.4845 58.9074 26.9901L55.4484 31.9207L51.0578 29.5896L42.9954 30.9339L42.6083 36.5029L47.6925 36.7368L47.0247 39.1659L44.0423 42.2757L46.2505 44.739L40.7237 49.2016L44.0423 51.7201L52.3429 48.5594L59.0734 50.6395C57.193 55.0148 54.2798 58.8375 50.6453 61.8112L51.1558 55.7702L45.2505 60.4157L35.4482 57.3908L38.5114 61.1218L34.7887 63.083L31.1383 59.2075L21.4721 57.8673L21.9486 62.5598L16.303 60.8368L16.4265 64.0103ZM36.4224 46.6L41.8982 44.2877L36.4224 42.2757L34 44.2877L36.4224 46.6Z" fill="#9098F5" fill-opacity="0.9"/>
<path d="M35.2358 26.0726C36.1773 27.0144 36.1773 28.531 35.2358 29.457L29.028 35.667L32.4112 50.3381L30.1611 52.605L23.9693 40.7436L17.7456 46.9696L18.3201 50.9128L16.6126 52.605L13.8039 47.5284L8.71326 44.7027L10.4048 42.9786L14.3944 43.5693L20.5702 37.3911L8.71326 31.1492L10.9793 28.8982L25.6449 32.2826L31.8526 26.0726C32.7463 25.1466 34.3421 25.1466 35.2358 26.0726Z" fill="#02122C"/>
</svg>
