<svg width="134" height="48" viewBox="0 0 134 48" fill="none" xmlns="http://www.w3.org/2000/svg">
<path d="M53.68 10.72V27.76C53.68 29.28 53.8933 30.5333 54.32 31.52C54.7733 32.48 55.36 33.24 56.08 33.8C56.8 34.36 57.6133 34.7467 58.52 34.96C59.4533 35.1733 60.4 35.28 61.36 35.28C62.32 35.28 63.2533 35.1733 64.16 34.96C65.0667 34.7467 65.88 34.36 66.6 33.8C67.32 33.24 67.8933 32.48 68.32 31.52C68.7467 30.5333 68.96 29.28 68.96 27.76V10.72H72.32V28.6C72.32 29.9867 72.0533 31.28 71.52 32.48C71.0133 33.68 70.28 34.7333 69.32 35.64C68.36 36.52 67.2 37.2133 65.84 37.72C64.48 38.2267 62.9733 38.48 61.32 38.48C57.7733 38.48 55.0533 37.6267 53.16 35.92C51.2667 34.1867 50.32 31.7467 50.32 28.6V10.72H53.68Z" fill="#02122C"/>
<path d="M99.9128 14.56C98.7395 14.32 97.4861 14.0933 96.1528 13.88C94.8461 13.6667 93.3261 13.5333 91.5928 13.48C89.8328 13.5067 88.3128 13.7733 87.0328 14.28C85.7528 14.7867 84.6995 15.52 83.8728 16.48C83.0728 17.4133 82.4728 18.5333 82.0728 19.84C81.6728 21.1467 81.4728 22.5867 81.4728 24.16C81.4728 26.1867 81.7261 27.92 82.2328 29.36C82.7661 30.8 83.4861 31.9867 84.3928 32.92C85.3261 33.8267 86.4061 34.4933 87.6328 34.92C88.8595 35.3467 90.1795 35.56 91.5928 35.56C92.4995 35.56 93.3128 35.5067 94.0328 35.4C94.7795 35.2933 95.4195 35.1733 95.9528 35.04C96.5128 34.88 97.0195 34.7067 97.4728 34.52V27.2H92.4728V24.2H100.873V36.16C99.9395 36.7733 98.6461 37.3333 96.9928 37.84C95.3661 38.32 93.5661 38.5467 91.5928 38.52C89.7795 38.52 88.0328 38.3067 86.3528 37.88C84.6995 37.4533 83.2195 36.7067 81.9128 35.64C80.6328 34.5467 79.6061 33.0667 78.8328 31.2C78.0595 29.3333 77.6728 26.9733 77.6728 24.12C77.6728 21.8 78.0328 19.7867 78.7528 18.08C79.4728 16.3467 80.4461 14.92 81.6728 13.8C82.9261 12.6533 84.3661 11.8 85.9928 11.24C87.6461 10.6533 89.3928 10.36 91.2328 10.36C92.4328 10.36 93.5928 10.4267 94.7128 10.56C95.8328 10.6667 96.8595 10.8 97.7928 10.96C98.7261 11.0933 99.6195 11.2667 100.473 11.48L99.9128 14.56ZM105.368 24.36C105.368 21.7733 105.768 19.5867 106.568 17.8C107.395 16.0133 108.435 14.5733 109.688 13.48C110.968 12.3867 112.381 11.6 113.928 11.12C115.501 10.6133 117.035 10.36 118.528 10.36C120.021 10.36 121.541 10.5733 123.088 11C124.661 11.4 126.075 12.1333 127.328 13.2C128.608 14.24 129.648 15.6667 130.448 17.48C131.275 19.2933 131.688 21.6 131.688 24.4C131.688 27.0133 131.275 29.2133 130.448 31C129.648 32.7867 128.608 34.24 127.328 35.36C126.075 36.48 124.661 37.2933 123.088 37.8C121.541 38.28 120.021 38.52 118.528 38.52C117.035 38.52 115.501 38.28 113.928 37.8C112.381 37.32 110.968 36.5333 109.688 35.44C108.435 34.3467 107.395 32.8933 106.568 31.08C105.768 29.2667 105.368 27.0267 105.368 24.36ZM127.888 24.56C127.888 20.96 127.048 18.2267 125.368 16.36C123.715 14.4933 121.488 13.56 118.688 13.56C117.275 13.56 115.981 13.7867 114.808 14.24C113.661 14.6667 112.661 15.32 111.808 16.2C110.981 17.08 110.328 18.1867 109.848 19.52C109.395 20.8267 109.168 22.3733 109.168 24.16C109.168 27.76 109.995 30.52 111.648 32.44C113.328 34.36 115.568 35.32 118.368 35.32C119.755 35.32 121.035 35.1067 122.208 34.68C123.381 34.2267 124.381 33.5467 125.208 32.64C126.061 31.7333 126.715 30.6133 127.168 29.28C127.648 27.9467 127.888 26.3733 127.888 24.56Z" fill="#9098F5" fill-opacity="0.9"/>
<path d="M20.0011 44C31.0381 44 40 35.0361 40 23.9998C40 12.9638 31.038 4 20.0014 4C8.96469 4 0 12.9638 0 23.9998C0 35.0361 8.96461 44 20.0011 44ZM10.2666 39.6315C5.05517 36.3821 1.58998 30.6006 1.58998 23.9998C1.58998 22.5412 1.75957 21.122 2.07925 19.7618L4.16938 20.4212L3.12159 16.6295C3.92603 14.7877 5.02437 13.1043 6.355 11.6362L10.0273 14.2684L15.5262 10.2081L20.7725 9.61537L21.9557 13.1702L26.1864 10.8862L31.9804 12.4975L31.2012 9.38394C33.6186 11.2382 35.5604 13.6778 36.8171 16.4938L34.6553 19.5755L31.9111 18.1185L26.8721 18.9587L26.6302 22.4393L29.8078 22.5855L29.3904 24.1037L27.5265 26.0473L28.9065 27.5869L25.4523 30.376L27.5265 31.9501L32.7143 29.9746L36.9209 31.2747C35.7456 34.0093 33.9249 36.3984 31.6533 38.257L31.9724 34.4814L28.2816 37.3848L22.1551 35.4942L24.0696 37.8261L21.7429 39.0519L19.4614 36.6297L13.4201 35.792L13.7179 38.7249L10.1894 37.648L10.2666 39.6315ZM22.764 28.75L26.1864 27.3048L22.764 26.0473L21.25 27.3048L22.764 28.75Z" fill="#9098F5" fill-opacity="0.9"/>
<path d="M22.0224 15.9204C22.6108 16.509 22.6108 17.4569 22.0224 18.0356L18.1425 21.9169L20.257 31.0863L18.8507 32.5031L14.9808 25.0898L11.091 28.981L11.4501 31.4455L10.3829 32.5031L8.62746 29.3302L5.4458 27.5642L6.50303 26.4866L8.9965 26.8558L12.8564 22.9945L5.4458 19.0932L6.86209 17.6864L16.0281 19.8016L19.9079 15.9204C20.4664 15.3417 21.4638 15.3417 22.0224 15.9204Z" fill="#02122C"/>
</svg>
